<svg xmlns="http://www.w3.org/2000/svg">

  <symbol id="logo" viewBox="0 0 45 45">
    <path fill="#0EC261" fill-rule="evenodd" clip-rule="evenodd" d="M0 22.25C0 9.96178 9.96198 0 22.2504 0C34.538 0 44.5 9.96178 44.5 22.25C44.5 25.0644 43.9774 27.7567 43.0241 30.2353C41.3767 27.6868 38.5104 26 35.25 26C30.1414 26 26 30.1414 26 35.25C26 38.5104 27.6868 41.3768 30.2354 43.0241C27.7569 43.9775 25.0647 44.5 22.2504 44.5C9.96198 44.5 0 34.5382 0 22.25ZM30.2354 43.0241C31.6801 43.9579 33.4018 44.5 35.25 44.5C40.3586 44.5 44.5 40.3586 44.5 35.25C44.5 33.4017 43.9579 31.6801 43.0241 30.2353C40.7682 36.1002 36.1001 40.7682 30.2354 43.0241Z" />  
  </symbol>

  <symbol id="hide" viewBox="0 0 20 16">
    <rect x="0.53" y="7" transform="matrix(0.7071 -0.7071 0.7071 0.7071 -2.7279 9.4142)" width="18.94" height="2"/>
    <g>
      <path d="M7.3,7.75c0-1.49,1.21-2.7,2.7-2.7c1.1,0,2.05,0.66,2.47,1.61l2.78-2.78C13.66,3.12,11.89,2.66,10,2.66c-4.18,0-7.86,2.14-10,5.39c1.48,2.24,3.7,3.94,6.3,4.78l2.62-2.62C7.97,9.8,7.3,8.86,7.3,7.75z"/>
      <path d="M17.02,4.94l-8.41,8.41c0.46,0.05,0.92,0.09,1.39,0.09c4.18,0,7.86-2.14,10-5.39C19.2,6.84,18.19,5.79,17.02,4.94z"/>
    </g>
  </symbol>

  <symbol id="show" viewBox="0 0 20 16">
    <path d="M10,2.61C5.82,2.61,2.14,4.75,0,8c2.14,3.25,5.82,5.39,10,5.39S17.86,11.25,20,8C17.86,4.75,14.18,2.61,10,2.61z M10,10.4c-1.49,0-2.7-1.21-2.7-2.7s1.21-2.7,2.7-2.7s2.7,1.21,2.7,2.7S11.49,10.4,10,10.4z"/>
  </symbol>

</svg>
