<svg xmlns="http://www.w3.org/2000/svg">

  <symbol id="logo" viewBox="0 0 45 45">
    <path fill="#0EC261" fill-rule="evenodd" clip-rule="evenodd" d="M0 22.25C0 9.96178 9.96198 0 22.2504 0C34.538 0 44.5 9.96178 44.5 22.25C44.5 25.0644 43.9774 27.7567 43.0241 30.2353C41.3767 27.6868 38.5104 26 35.25 26C30.1414 26 26 30.1414 26 35.25C26 38.5104 27.6868 41.3768 30.2354 43.0241C27.7569 43.9775 25.0647 44.5 22.2504 44.5C9.96198 44.5 0 34.5382 0 22.25ZM30.2354 43.0241C31.6801 43.9579 33.4018 44.5 35.25 44.5C40.3586 44.5 44.5 40.3586 44.5 35.25C44.5 33.4017 43.9579 31.6801 43.0241 30.2353C40.7682 36.1002 36.1001 40.7682 30.2354 43.0241Z" />  
  </symbol>

  <symbol id="hide" viewBox="0 0 18 14.5">
		<path d="M14.61,3.05l1.46-1.46l-1.41-1.41L12.8,2.03l-1.78,1.78L9.51,5.32L7.07,7.76L5.57,9.27l-2.18,2.18h0l-1.46,1.46l1.41,1.41l1.86-1.86c1.17,0.5,2.45,0.78,3.8,0.78c4.03,0,7.48-2.47,9-6C17.27,5.55,16.09,4.1,14.61,3.05z M9,11.25c-0.74,0-1.43-0.22-2.02-0.57l1.51-1.51C8.65,9.22,8.82,9.25,9,9.25c1.1,0,2-0.9,2-2c0-0.18-0.03-0.35-0.07-0.51l1.51-1.51C12.79,5.82,13,6.51,13,7.25C13,9.46,11.21,11.25,9,11.25z"/>
    <path d="M5.03,6.98c0.14-1.99,1.71-3.57,3.7-3.7l1.88-1.88C10.09,1.31,9.55,1.25,9,1.25c-4.03,0-7.48,2.47-9,6c0.46,1.07,1.12,2.03,1.9,2.86L5.03,6.98z"/>
  </symbol>

  <symbol id="show" viewBox="0 0 18 14.5">
    <path d="M9,1.25c-4.03,0-7.48,2.47-9,6c1.52,3.53,4.97,6,9,6s7.48-2.47,9-6C16.48,3.72,13.03,1.25,9,1.25z M9,11.25c-2.21,0-4-1.79-4-4c0-2.21,1.79-4,4-4s4,1.79,4,4C13,9.46,11.21,11.25,9,11.25z"/>
    <path d="M9,9.25L9,9.25c-1.1,0-2-0.9-2-2v0c0-1.1,0.9-2,2-2h0c1.1,0,2,0.9,2,2v0C11,8.35,10.1,9.25,9,9.25z"/>
  </symbol>

</svg>
